<mxfile host="Electron" modified="2024-06-10T13:09:11.534Z" agent="Mozilla/5.0 (Windows NT 10.0; Win64; x64) AppleWebKit/537.36 (KHTML, like Gecko) draw.io/24.1.0 Chrome/120.0.6099.109 Electron/28.1.0 Safari/537.36" etag="gBoDx_302eEFo6kOKub8" version="24.1.0" type="device">
  <diagram name="Страница — 1" id="XDdJCOj5BgrIff6nonp3">
    <mxGraphModel dx="2198" dy="1294" grid="1" gridSize="10" guides="1" tooltips="1" connect="1" arrows="1" fold="1" page="1" pageScale="1" pageWidth="650" pageHeight="200" math="0" shadow="0">
      <root>
        <mxCell id="0" />
        <mxCell id="1" parent="0" />
        <mxCell id="ga1eZ9HjU4N5ib0OzfGF-2" value="СТРАНИЦА МЕНЮ&lt;div&gt;поиск&lt;/div&gt;&lt;div&gt;меню&lt;/div&gt;&lt;div&gt;кнопка показа меню в разных стилях&lt;/div&gt;&lt;div&gt;фильтрация&lt;/div&gt;&lt;div&gt;items с кнопкой добавления/удаления в корзину&lt;/div&gt;&lt;div&gt;кнопка корзины&lt;/div&gt;&lt;div&gt;кнопка заказов&lt;/div&gt;&lt;div&gt;связь&lt;/div&gt;" style="rounded=0;whiteSpace=wrap;html=1;" parent="1" vertex="1">
          <mxGeometry x="20" y="-190" width="180" height="180" as="geometry" />
        </mxCell>
        <mxCell id="ga1eZ9HjU4N5ib0OzfGF-3" value="КОРЗИНА&lt;div&gt;&lt;div&gt;items с кнопкой добавления/удаления в корзину&lt;/div&gt;&lt;/div&gt;&lt;div&gt;&lt;span style=&quot;background-color: initial;&quot;&gt;поле для добавления&lt;/span&gt;&lt;span style=&quot;background-color: initial;&quot;&gt;&amp;nbsp;&lt;/span&gt;комментарий&lt;/div&gt;&lt;div&gt;поле для добавления адрес&lt;/div&gt;&lt;div&gt;кнопка заказать&lt;/div&gt;&lt;div&gt;&lt;br&gt;&lt;/div&gt;" style="rounded=0;whiteSpace=wrap;html=1;" parent="1" vertex="1">
          <mxGeometry x="235" y="-190" width="180" height="180" as="geometry" />
        </mxCell>
        <mxCell id="ga1eZ9HjU4N5ib0OzfGF-4" value="&lt;div&gt;ОПЛАТА&lt;/div&gt;&lt;div&gt;Все поля КОРЗИНЫ&lt;/div&gt;&lt;div&gt;выбор формы оплаты&lt;/div&gt;&lt;div&gt;(если безнал ввод карты)&lt;/div&gt;&lt;div&gt;кнопка оплать&lt;/div&gt;&lt;div&gt;&lt;br&gt;&lt;/div&gt;" style="rounded=0;whiteSpace=wrap;html=1;" parent="1" vertex="1">
          <mxGeometry x="440" y="-190" width="180" height="180" as="geometry" />
        </mxCell>
        <mxCell id="ga1eZ9HjU4N5ib0OzfGF-5" value="AUTH&lt;div&gt;почта&lt;/div&gt;&lt;div&gt;пароль&lt;/div&gt;&lt;div&gt;кнопка auth&lt;br&gt;кнопка регистрация&lt;/div&gt;" style="rounded=0;whiteSpace=wrap;html=1;" parent="1" vertex="1">
          <mxGeometry x="-390" y="-190" width="180" height="180" as="geometry" />
        </mxCell>
        <mxCell id="ga1eZ9HjU4N5ib0OzfGF-6" value="РЕГИСТРАЦИЯ&lt;div&gt;все поля которые нада&lt;/div&gt;&lt;div&gt;ввод кода подтверждения почты&lt;/div&gt;" style="rounded=0;whiteSpace=wrap;html=1;" parent="1" vertex="1">
          <mxGeometry x="-180" y="-190" width="180" height="180" as="geometry" />
        </mxCell>
        <mxCell id="ga1eZ9HjU4N5ib0OzfGF-8" value="ЗАКАЗА&lt;div&gt;&lt;div&gt;items&lt;/div&gt;&lt;div&gt;комментарий&lt;/div&gt;&lt;div&gt;&lt;span style=&quot;background-color: initial;&quot;&gt;адресс&lt;/span&gt;&lt;/div&gt;&lt;/div&gt;&lt;div&gt;&lt;span style=&quot;background-color: initial;&quot;&gt;кнопка для связи с курьером&lt;/span&gt;&lt;/div&gt;&lt;div&gt;&lt;span style=&quot;background-color: initial;&quot;&gt;статус заказа&lt;/span&gt;&lt;/div&gt;&lt;div&gt;отменить заказ&lt;/div&gt;&lt;div&gt;кнопка меню&lt;/div&gt;" style="rounded=0;whiteSpace=wrap;html=1;" parent="1" vertex="1">
          <mxGeometry x="850" y="-190" width="180" height="180" as="geometry" />
        </mxCell>
        <mxCell id="ga1eZ9HjU4N5ib0OzfGF-9" value="&lt;div&gt;ЧАТ&lt;/div&gt;&lt;div&gt;с курьером&amp;nbsp;&lt;/div&gt;&lt;div&gt;кнопка назад&lt;/div&gt;" style="rounded=0;whiteSpace=wrap;html=1;" parent="1" vertex="1">
          <mxGeometry x="1050" y="-190" width="180" height="180" as="geometry" />
        </mxCell>
        <mxCell id="ga1eZ9HjU4N5ib0OzfGF-11" value="&lt;h1 style=&quot;margin-top: 0px;&quot;&gt;&lt;span style=&quot;background-color: initial;&quot;&gt;Сlient&amp;nbsp;&lt;/span&gt;&lt;span style=&quot;background-color: initial; font-size: 12px; font-weight: normal;&quot;&gt;.&lt;/span&gt;&lt;br&gt;&lt;/h1&gt;" style="text;html=1;whiteSpace=wrap;overflow=hidden;rounded=0;" parent="1" vertex="1">
          <mxGeometry x="-600" y="-160" width="180" height="120" as="geometry" />
        </mxCell>
        <mxCell id="ga1eZ9HjU4N5ib0OzfGF-12" value="&lt;h1 style=&quot;margin-top: 0px;&quot;&gt;Предприятие&lt;/h1&gt;" style="text;html=1;whiteSpace=wrap;overflow=hidden;rounded=0;" parent="1" vertex="1">
          <mxGeometry x="-610" y="30" width="180" height="120" as="geometry" />
        </mxCell>
        <mxCell id="ga1eZ9HjU4N5ib0OzfGF-14" value="ЗАКАЗЫ&lt;div&gt;кнопка показа меню в разных стилях&lt;br&gt;&lt;/div&gt;&lt;div&gt;List&amp;lt;заказ,&amp;nbsp;&lt;span style=&quot;background-color: initial;&quot;&gt;кнопка изменения статуса&lt;/span&gt;&lt;span style=&quot;background-color: initial;&quot;&gt;&amp;gt;&lt;/span&gt;&lt;/div&gt;&lt;div&gt;&lt;span style=&quot;background-color: initial;&quot;&gt;кнопка истории заказов&lt;/span&gt;&lt;/div&gt;&lt;div&gt;предприятия(закрыта\открыта)&lt;/div&gt;&lt;div&gt;связь с админом&lt;/div&gt;" style="rounded=0;whiteSpace=wrap;html=1;" parent="1" vertex="1">
          <mxGeometry x="-180" width="180" height="180" as="geometry" />
        </mxCell>
        <mxCell id="ga1eZ9HjU4N5ib0OzfGF-15" value="ЗАКАЗ&lt;div&gt;*все поля заказа*&lt;/div&gt;&lt;div&gt;кнопка отмены заказа(с указанием причины)&lt;br&gt;&lt;div&gt;кнопка что закончил делать заказ&lt;/div&gt;&lt;/div&gt;&lt;div&gt;&amp;nbsp;инфо о курьере&amp;nbsp;&lt;/div&gt;" style="rounded=0;whiteSpace=wrap;html=1;" parent="1" vertex="1">
          <mxGeometry x="20" width="180" height="180" as="geometry" />
        </mxCell>
        <mxCell id="ga1eZ9HjU4N5ib0OzfGF-16" value="&lt;h1 style=&quot;margin-top: 0px;&quot;&gt;Курьер&lt;/h1&gt;" style="text;html=1;whiteSpace=wrap;overflow=hidden;rounded=0;" parent="1" vertex="1">
          <mxGeometry x="-610" y="200" width="180" height="120" as="geometry" />
        </mxCell>
        <mxCell id="ga1eZ9HjU4N5ib0OzfGF-17" value="&lt;div&gt;&lt;br&gt;&lt;/div&gt;ТЕКУЩИЙ ЗАКАЗ&lt;div&gt;связь с админом&lt;br&gt;&lt;div&gt;*все поля заказа*&lt;/div&gt;&lt;div&gt;изменить статус заказа(забрал/доставил/отдал в руки)&lt;/div&gt;&lt;div&gt;связь с клиентом&lt;/div&gt;&lt;div&gt;кнопка отмены заказа( и указание причины)&lt;/div&gt;&lt;div&gt;изменить свой статус(готов к работе/ не готов к работе)&lt;/div&gt;&lt;/div&gt;" style="rounded=0;whiteSpace=wrap;html=1;" parent="1" vertex="1">
          <mxGeometry x="-190" y="199" width="190" height="180" as="geometry" />
        </mxCell>
        <mxCell id="ga1eZ9HjU4N5ib0OzfGF-18" value="ЧАТ&lt;div&gt;с клиентом&lt;/div&gt;&lt;div&gt;&lt;br&gt;&lt;/div&gt;" style="rounded=0;whiteSpace=wrap;html=1;" parent="1" vertex="1">
          <mxGeometry x="20" y="200" width="180" height="180" as="geometry" />
        </mxCell>
        <mxCell id="ga1eZ9HjU4N5ib0OzfGF-20" value="if not auth" style="rounded=0;whiteSpace=wrap;html=1;" parent="1" vertex="1">
          <mxGeometry x="-390" y="-260" width="180" height="60" as="geometry" />
        </mxCell>
        <mxCell id="ga1eZ9HjU4N5ib0OzfGF-21" value="if auth" style="rounded=0;whiteSpace=wrap;html=1;" parent="1" vertex="1">
          <mxGeometry x="20" y="-260" width="180" height="60" as="geometry" />
        </mxCell>
        <mxCell id="ga1eZ9HjU4N5ib0OzfGF-22" value="if not one order" style="rounded=0;whiteSpace=wrap;html=1;" parent="1" vertex="1">
          <mxGeometry x="640" y="-260" width="180" height="60" as="geometry" />
        </mxCell>
        <mxCell id="ga1eZ9HjU4N5ib0OzfGF-23" value="СПИСОК ТЕКУЩИХ ЗАКАЗОВ&lt;div&gt;КНОПКА ИСТОРИЯ ЗАКАЗОВ&lt;/div&gt;&lt;div&gt;КНОПКА ОТМЕННЕННЫЕ ЗАКАЗЫ&lt;br&gt;&lt;div&gt;&lt;div&gt;&lt;br&gt;&lt;/div&gt;&lt;/div&gt;&lt;/div&gt;" style="rounded=0;whiteSpace=wrap;html=1;" parent="1" vertex="1">
          <mxGeometry x="640" y="-190" width="180" height="180" as="geometry" />
        </mxCell>
        <mxCell id="ga1eZ9HjU4N5ib0OzfGF-24" value="AUTH&lt;div&gt;почта&lt;/div&gt;&lt;div&gt;пароль&lt;/div&gt;&lt;div&gt;кнопка auth&lt;br&gt;&lt;/div&gt;" style="rounded=0;whiteSpace=wrap;html=1;" parent="1" vertex="1">
          <mxGeometry x="-390" width="180" height="180" as="geometry" />
        </mxCell>
        <mxCell id="ga1eZ9HjU4N5ib0OzfGF-26" value="AUTH&lt;div&gt;почта&lt;/div&gt;&lt;div&gt;пароль&lt;/div&gt;&lt;div&gt;кнопка auth&lt;br&gt;&lt;/div&gt;" style="rounded=0;whiteSpace=wrap;html=1;" parent="1" vertex="1">
          <mxGeometry x="-390" y="200" width="180" height="180" as="geometry" />
        </mxCell>
        <mxCell id="ga1eZ9HjU4N5ib0OzfGF-27" value="КНОПКА&lt;div&gt;просмотр курьеров&lt;/div&gt;&lt;div&gt;просмотр предприятий&lt;/div&gt;" style="rounded=0;whiteSpace=wrap;html=1;" parent="1" vertex="1">
          <mxGeometry x="-390" y="400" width="180" height="140" as="geometry" />
        </mxCell>
        <mxCell id="ga1eZ9HjU4N5ib0OzfGF-28" value="CRUD&lt;div&gt;курьеров&lt;span style=&quot;color: rgba(0, 0, 0, 0); font-family: monospace; font-size: 0px; text-align: start; text-wrap: nowrap; background-color: initial;&quot;&gt;%3CmxGraphModel%3E%3Croot%3E%3CmxCell%20id%3D%220%22%2F%3E%3CmxCell%20id%3D%221%22%20parent%3D%220%22%2F%3E%3CmxCell%20id%3D%222%22%20value%3D%22%D0%9A%D0%9D%D0%9E%D0%9F%D0%9A%D0%90%26lt%3Bdiv%26gt%3B%D0%BF%D1%80%D0%BE%D1%81%D0%BC%D0%BE%D1%82%D1%80%20%D0%BA%D1%83%D1%80%D1%8C%D0%B5%D1%80%D0%BE%D0%B2%26lt%3B%2Fdiv%26gt%3B%26lt%3Bdiv%26gt%3B%D0%BF%D1%80%D0%BE%D1%81%D0%BC%D0%BE%D1%82%D1%80%20%D0%BF%D1%80%D0%B5%D0%B4%D0%BF%D1%80%D0%B8%D1%8F%D1%82%D0%B8%D0%B9%26lt%3B%2Fdiv%26gt%3B%22%20style%3D%22rounded%3D0%3BwhiteSpace%3Dwrap%3Bhtml%3D1%3B%22%20vertex%3D%221%22%20parent%3D%221%22%3E%3CmxGeometry%20x%3D%22-390%22%20y%3D%22400%22%20width%3D%22180%22%20height%3D%22140%22%20as%3D%22geometry%22%2F%3E%3C%2FmxCell%3E%3C%2Froot%3E%3C%2FmxGraphModel%3E&lt;/span&gt;&lt;/div&gt;" style="rounded=0;whiteSpace=wrap;html=1;" parent="1" vertex="1">
          <mxGeometry x="-190" y="400" width="180" height="140" as="geometry" />
        </mxCell>
        <mxCell id="ga1eZ9HjU4N5ib0OzfGF-29" value="CRUD&lt;div&gt;предприятий&lt;/div&gt;" style="rounded=0;whiteSpace=wrap;html=1;" parent="1" vertex="1">
          <mxGeometry x="20" y="400" width="180" height="140" as="geometry" />
        </mxCell>
        <mxCell id="ga1eZ9HjU4N5ib0OzfGF-30" value="&lt;h1 style=&quot;margin-top: 0px;&quot;&gt;АДМИН&lt;/h1&gt;" style="text;html=1;whiteSpace=wrap;overflow=hidden;rounded=0;" parent="1" vertex="1">
          <mxGeometry x="-600" y="400" width="180" height="120" as="geometry" />
        </mxCell>
        <mxCell id="ga1eZ9HjU4N5ib0OzfGF-35" value="if&amp;nbsp; order" style="rounded=0;whiteSpace=wrap;html=1;" parent="1" vertex="1">
          <mxGeometry x="850" y="-260" width="180" height="60" as="geometry" />
        </mxCell>
        <mxCell id="ga1eZ9HjU4N5ib0OzfGF-36" value="ЧАТ&lt;div&gt;с админом&lt;/div&gt;&lt;div&gt;&lt;br&gt;&lt;/div&gt;" style="rounded=0;whiteSpace=wrap;html=1;" parent="1" vertex="1">
          <mxGeometry x="220" y="200" width="180" height="180" as="geometry" />
        </mxCell>
      </root>
    </mxGraphModel>
  </diagram>
</mxfile>
